<?xml version="1.0" encoding="utf-8"?>
<!-- Generator: Adobe Illustrator 25.0.0, SVG Export Plug-In . SVG Version: 6.00 Build 0)  -->
<svg version="1.1" id="レイヤー_1" xmlns="http://www.w3.org/2000/svg" xmlns:xlink="http://www.w3.org/1999/xlink" x="0px"
	 y="0px" viewBox="0 0 977 49.2" style="enable-background:new 0 0 977 49.2;" xml:space="preserve">
<style type="text/css">
	.st0{fill:#141414;}
</style>
<g>
	<g>
		<g>
			<path class="st0" d="M48,32.6c-0.4,0.7-1,1-2.4,1h-18c4.8,4.7,13.6,8.3,20.9,9.8L48.4,44c-1.7,0.3-3.1,1.7-3.6,3.9
				c-7.5-2.7-14.5-7.6-18.6-14.2v13.9c0,0.1-0.7,1.3-4.2,1.3V35.7c-5,5.6-12.6,9.8-21.6,12.5L0,47.3C7.4,44,13.8,39,17.7,33.6h-17
				l-0.3-1.2h21.5v-10H8.8v1.3c0,0.1-0.7,1.5-4,1.5V8.8l4.4,1.9h7v-6H1.1L0.7,3.5h39.1l2.6-3.4l5,3.5c-0.4,0.7-1,1.1-2.4,1.1H31.7v6
				h7.1l1.8-2.5l5.1,3.7c-0.4,0.4-1.2,0.9-2.3,1.2v10.4c0,0.1-1.2,1.2-4.1,1.2v-2.3h-17v0.1l5.8,0.5c-0.1,0.7-0.5,1.2-2.1,1.3v8.2
				h4.3c1.2-2.1,2.6-5.5,3.9-8.7l5.7,2.6c-0.3,0.6-0.8,0.9-2,0.7c-1.8,1.9-4,3.9-6,5.4h7.8l2.8-3.6L48,32.6z M8.9,11.8v9.5h7.4v-9.5
				H8.9z M9.5,23.9c5.4,1.2,7.2,3.7,7.2,5.6c0,1.5-1.1,2.6-2.3,2.6c-0.6,0-1.2-0.3-1.8-0.8c-0.2-2.4-1.7-5.3-3.4-7L9.5,23.9z
				 M20.2,4.6v6h7.7v-6H20.2z M20.2,21.2h7.7v-9.5h-7.7V21.2z M39.6,11.8h-7.7v9.5h7.7V11.8z"/>
		</g>
		<g>
			<path class="st0" d="M56.8,13.7c5.8,0.7,7.7,3.1,7.7,5c0,1.3-1,2.4-2.1,2.4c-0.5,0-1.1-0.2-1.6-0.7c-0.5-2.2-2.3-4.8-4.2-6.3
				L56.8,13.7z M59.2,33.8c0.6,0,0.8,0,1.3-1.1c0.4-0.7,0.9-1.9,8.8-22.7l0.9,0.3c-1.8,6.4-5.3,18.3-6,20.9
				c-0.3,1.6-0.6,3.1-0.6,4.4v0.3c0,2.3,1.4,4.6,1.4,8.6S62.9,49,61.9,49s-1.7-0.9-1.9-2.7c0.3-2.1,0.5-4,0.5-5.7
				c0-5.1-1.1-5.5-3.6-5.7v-1.1C58.6,33.8,59.2,33.7,59.2,33.8L59.2,33.8z M58.6,0.5c6.3,0.9,8.3,3.6,8.3,5.5c0,1.4-1,2.4-2.1,2.4
				c-0.5,0-1.1-0.2-1.6-0.7c-0.7-2.4-2.8-5.2-4.8-6.8L58.6,0.5z M97.2,32.6l2.4-3.2l4.6,3.3c-0.5,0.7-1,1-2.4,1H88v5.6h7.1l2.5-3.3
				l4.7,3.4c-0.4,0.8-1,1.1-2.3,1.1H88v7.4c0,0.2-1.3,1-3.3,1H84v-8.4H71.1l-0.3-1.2H84v-5.6H69.6l-0.4-1.2h9.4
				c-0.3-0.2-0.5-0.4-0.7-0.6c0.2-1.9-0.7-4.6-1.8-6.1h-7.7l-0.3-1.2h15.8v-4.9h-12l-0.3-1.2h12.3v-4.7l6.2,0.6
				c-0.1,0.8-0.6,1.1-2.2,1.3v2.8h6.7l2.4-3.2l4.6,3.3c-0.4,0.8-1,1.1-2.4,1.1H87.9v4.9h9.3l2.4-3.2l4.7,3.3c-0.4,0.8-1,1.1-2.4,1.1
				h-7.4l3.1,1.1c-0.2,0.6-0.8,0.7-1.9,0.7c-1.2,1.5-3,3.5-4.5,5L97.2,32.6L97.2,32.6z M75.4,13.2v1c0,0.3-1.2,1.3-3.2,1.3h-0.6V0.7
				l4.3,1.8h21l1.7-2.3l4.4,3.4c-0.3,0.4-0.8,0.7-1.8,0.8V14c0,0.2-1.4,1.1-3.2,1.1h-0.7v-1.9H75.4z M80.5,3.7h-5.1v8.4h5.1V3.7z
				 M77.8,25.8c3.1,1.5,4.1,3.2,4.1,4.6c0,0.9-0.5,1.7-1.1,2.2h9.1c0.7-1.9,1.4-4.6,1.9-6.8L77.8,25.8L77.8,25.8z M88.8,3.7h-5.1
				v8.4h5.1V3.7z M97.4,3.7h-5.2v8.4h5.2V3.7z"/>
		</g>
		<g>
			<path class="st0" d="M130.3,25.7c0-2.4,1.9-4.3,4.2-4.3c2.3,0,4.2,2,4.2,4.3c0,2.4-1.9,4.3-4.2,4.3C132.1,30,130.3,28,130.3,25.7
				z"/>
		</g>
		<g>
			<path class="st0" d="M205.1,12.8l6.3,0.5c-0.1,0.8-0.5,1.2-2.1,1.4v31.8c0,0.1-0.7,1.5-4.2,1.5v-6h-32.5v5.4
				c0,0.2-0.6,1.4-4.1,1.4V13l6.3,0.5c-0.1,0.8-0.6,1.2-2.1,1.4v25.9h14v-40l6.5,0.6c-0.1,0.8-0.7,1.2-2.3,1.4v38h14.3L205.1,12.8
				L205.1,12.8z"/>
		</g>
		<g>
			<path class="st0" d="M268.5,12.9c-0.4,0.7-1,1-2.4,1h-18c4.5,9.4,13.1,17.5,21.2,21.2l-0.1,0.5c-1.8,0.3-3.3,1.6-4,3.7
				c-7.8-5.2-14.4-14.1-18.2-25.5V36h3.8l2.6-3.7l4.8,3.8c-0.4,0.8-1.1,1.1-2.4,1.1h-8.7v10.3c0,0.1-0.5,1.5-4.2,1.5V37.3h-10.6
				l-0.3-1.2h10.9V18.3c-4.6,8.8-11.9,16.3-21.3,21.5L221,39c8.5-6.3,15.2-15.8,18.7-25.2h-17.8l-0.4-1.2h21.3V-0.2l6.5,0.6
				c-0.1,0.8-0.6,1.2-2.3,1.4v10.8h13.3l2.9-3.9L268.5,12.9z"/>
		</g>
		<g>
			<path class="st0" d="M278.6,14.4c6.5,0.6,8.6,3.2,8.6,5.3c0,1.3-0.9,2.4-2.1,2.4c-0.5,0-1.1-0.2-1.6-0.6c-0.8-2.4-3-5.1-5.2-6.5
				L278.6,14.4z M281.5,34.1c0.7,0,0.9,0,1.4-1.1c0.5-0.8,1-2,10.6-24.1l0.9,0.3c-2.3,6.8-6.7,19.4-7.4,22.2
				c-0.5,1.7-0.9,3.5-0.9,4.8c0.1,2.3,1.5,4.5,1.5,8.4c0,1,0,4.6-3.3,4.6c-1,0-1.8-0.9-2-2.7c0.3-2,0.4-3.9,0.4-5.5
				c0-4.5-0.8-5.6-3.7-5.7v-1.1C281,34.1,281.5,34,281.5,34.1L281.5,34.1z M280.9,0.7c6.8,0.7,9,3.5,9,5.7c0,1.4-1,2.5-2.2,2.5
				c-0.5,0-1-0.2-1.6-0.6c-0.9-2.5-3.2-5.5-5.5-7.1L280.9,0.7z M321,20.8l4.9,3.7c-0.4,0.7-1,1.1-2.4,1.1h-17.7l4.5,1.6
				c-0.3,0.6-0.7,0.9-2,0.9c-2.3,4.7-5.1,9.8-7.9,13.6c4.8-0.2,10.9-0.6,17.2-1c-1.3-2.5-2.8-4.9-4.4-6.7l0.5-0.4
				c7.9,4,10.4,8.7,10.4,11.8c0,2-1.1,3.4-2.4,3.4c-0.6,0-1.2-0.3-1.9-0.9c-0.2-1.9-0.8-4-1.7-6c-5.2,1.3-12.3,2.9-22.2,4.8
				c-0.4,0.7-0.9,1.1-1.4,1.2l-2.6-5.8c1.7,0,4-0.1,6.9-0.2c1.6-4.4,3.5-10.7,4.9-16.2H292l-0.3-1.2h14.4V12.4h-10.8l-0.3-1.2h11.1
				V0.1l6.6,0.6c-0.1,0.8-0.6,1.2-2.3,1.4v9.1h5.8l2.6-3.5l4.8,3.7c-0.4,0.7-1,1.1-2.4,1.1h-10.9v12.1h8L321,20.8z"/>
		</g>
		<g>
			<path class="st0" d="M376.3,24.4c-0.1,0.3-2.1,1.2-3.4,1.2h-0.7v-2h-7v6.7h6.7l2.5-3.4l4.7,3.5c-0.4,0.7-1,1-2.4,1h-11.6v6.9h9.1
				l2.6-3.5l4.9,3.6c-0.4,0.7-1,1.1-2.4,1.1h-14.1v7.7c0,0.1-0.6,1.6-4.1,1.6v-9.3h-14.4l-0.3-1.2h14.7v-6.8h-12.2l-0.3-1.2h12.5
				v-6.7h-10.7l-0.4-1.2h11.1v-6.7h-13.5l-0.1-0.1c-0.9,1.4-1.9,2.9-3.1,4.4l1.7,0.6c-0.2,0.5-0.7,0.8-1.5,1v25.9
				c-0.1,0.3-1.7,1.4-3.3,1.4h-0.8V24.5c-1.9,2.1-4,4-6.2,5.7l-0.6-0.7c4.7-5.4,9.1-13.6,11.1-19.1l5.6,2.8c-0.3,0.5-0.7,0.8-2,0.6
				l-0.4,0.6h12.8V7.8h-10.4L350,6.6h10.8v-6.8l6.2,0.6c-0.1,0.7-0.6,1.1-2.1,1.3v4.9h6.5l1.8-2.4l5,3.6c-0.4,0.4-1.1,0.9-2.2,1.1
				v5.4h0.5l1.9-2.9l3.7,3.1c-0.4,0.7-0.9,1-2.3,1h-3.5V24.4z M334.3,13.6C338.1,9.8,342.1,4,344,0l5.2,3.2
				c-0.2,0.4-0.6,0.6-1.2,0.6c-0.2,0-0.5-0.1-0.8-0.1c-2.8,3.3-7.6,7.7-12.5,10.7L334.3,13.6z M365.2,8v6.6h7V8H365.2z M365.2,22.4
				h7v-6.7h-7V22.4z"/>
		</g>
		<g>
			<path class="st0" d="M432.9,27.6l4.7,3.8c-0.4,0.7-1,1.1-2.4,1.1h-5.8v9c0,0.1-1.2,1.3-4.1,1.3V39H415v4.1c0,3-0.9,5.3-6.6,5.9
				c0-3.1-2.2-3.5-6.6-3.9v-0.8h7.7c1,0,1.3-0.3,1.3-1.2V39h-15.4l-0.4-1.2h15.8v-5.3h-21.5l-0.3-1.2h21.8V26h-15.1l-0.4-1.2h15.4
				v-4.7h-9.3v1.1c0,0.1-0.7,1.5-4.1,1.5V9.5l4.4,1.9h9V6.9h-20.8l-0.4-1.2h21.2v-5.9l6.4,0.6c-0.1,0.8-0.4,1.2-2.2,1.4v3.9h13.3
				l2.8-3.6l5.2,3.7c-0.4,0.7-1,1-2.4,1h-18.9v4.5h8.9l1.8-2.4l5,3.6c-0.4,0.4-1.1,0.8-2.1,1.1v6.8c0,0.1-1.1,1.3-4.2,1.3v-1.6h-9.4
				v4.7h9.8l1.7-2.4l4.9,3.6c-0.3,0.4-1.1,0.8-2.1,1.1v4.2h0.9L432.9,27.6z M401.6,19h9.3v-6.4h-9.3V19z M424.5,12.6h-9.4V19h9.4
				V12.6z M415.1,26v5.3h10.3V26H415.1z M425.4,37.8v-5.3h-10.3v5.4h10.3V37.8z"/>
		</g>
		<g>
			<path class="st0" d="M463.8,16.3l4.1,4.1c-0.4,0.4-1,0.5-2,0.6c-1.4,2.5-3.8,6.1-5.9,8.1l-0.7-0.4c0.9-2.1,2-6,2.5-8.8h-4.5v23.5
				c0,3-0.8,5.1-5.6,5.6c0-3-1.2-3.7-4.8-4v-0.7h5.7c0.7,0,0.9-0.2,0.9-0.8V29c-2.2,4.2-5.1,7.9-8.7,11.1l-0.7-0.7
				c4.1-5.3,6.9-12.5,8.5-19.4h-8l-0.3-1.2h17.3L463.8,16.3z M448.7,8.6c3.3,0.5,5.7,1.4,7.2,2.4c1.4-1.8,3-4.3,4.1-6.2h-14.8
				l-0.4-1.2h15.1l2.4-2.5l4.2,4.2c-0.4,0.4-1,0.5-2.1,0.5c-1.7,1.7-4.9,4.2-7.5,6c1.3,1.2,1.8,2.4,1.8,3.5c0,1.4-0.9,2.4-2,2.4
				c-0.5,0-1-0.2-1.5-0.6c-1.1-2.9-4.1-6.4-6.9-8.1L448.7,8.6z M492.2,7.4c-0.4,0.7-1.1,1-2.4,1h-2.3c-1.6,4.3-3.8,8-6.8,11
				c3.3,1.9,7.3,3.4,12.4,4.4l-0.1,0.6c-1.1,0.5-1.9,1.8-2.2,3.8c-5.5-1.7-9.5-3.9-12.5-6.6c-1.4,1.1-2.9,2-4.5,3l5.2,0.5
				c-0.1,0.6-0.4,0.9-1.8,1.1c-0.2,1.6-0.3,3.1-0.6,4.7h7.6l1.8-2.3l4.5,3.5c-0.4,0.4-1,0.7-2,0.8c-1,15-3.1,16-8.9,16.1
				c0-2.3-0.6-3.1-5-3.7l0.1-0.8c1.6,0.1,4.8,0.2,6,0.2c0.8,0,1.2,0,1.6-0.4c1.1-0.9,1.8-5.3,2.3-12.2h-8.2
				c-1.4,6.9-4.8,13.3-14.8,17.1l-0.6-0.8c7.4-3.8,10.2-9.8,11.3-16.3h-8l-0.4-1.2h8.6c0.3-1.9,0.4-3.8,0.5-5.7
				c-3,1.5-6.4,2.8-10.2,3.8l-0.3-0.8c5.8-2,10.4-4.8,13.9-8.4c-2.2-2.5-3.8-5.3-5.3-8.5c-1.7,2.2-3.7,3.9-5.8,5.3l-0.7-0.5
				c3-3.4,5.9-9.4,7.6-15.9l5.7,2c-0.3,0.6-0.7,0.9-1.9,0.9c-0.7,1.5-1.4,2.9-2.2,4.3h11.4l2.5-3.5L492.2,7.4z M472.9,8.4
				c-0.4,0.6-0.8,1.2-1.3,1.8c1.7,2.9,3.7,5.4,6.3,7.4c2.1-2.7,3.7-5.7,4.8-9.2L472.9,8.4L472.9,8.4z"/>
		</g>
		<g>
			<path class="st0" d="M516.4,28h-9.7c-0.2,6.9-1.2,15.1-7.1,21l-0.7-0.5c3.6-6.8,3.8-15.4,3.8-23.2V11.8l4.7,2h8.5l1.7-2.4
				l4.9,3.6c-0.3,0.4-1.1,0.8-2.1,1.1v14.6c0,0.1-1.3,1.2-4,1.2V28L516.4,28z M523.8,4.4c-0.4,0.7-1,1-2.4,1h-21.7l-0.3-1.2h17.1
				l2.5-3.5L523.8,4.4z M516.4,14.9h-9.7v11.9h9.7V14.9z M542.8,15.4l4.7,3.6c-0.4,0.7-1.1,1-2.4,1h-4.2v27.7c0,0.3-1.3,1.3-3.5,1.3
				h-0.7V20H529v2c0,9.6-1.2,20.3-12.5,27l-0.6-0.7c7.8-7.2,9.1-16.4,9.1-26.3V4.3l4.7,1.6c4.2-1.7,8.9-4.2,11.4-5.9l5.1,4.3
				c-0.3,0.3-0.7,0.4-1.2,0.4s-1-0.1-1.6-0.3c-3.6,1.1-9.3,2.3-14.4,2.9v11.5h11.3L542.8,15.4z"/>
		</g>
	</g>
</g>
<g>
	<g>
		<g>
			<path class="st0" d="M595.6,42.1h-5.7l-0.8,2.7c-0.1,0.5-0.2,0.9-0.2,1.2c0,0.5,0.3,0.7,1.2,0.7v1H586v-1c0.8,0,1.1-0.3,1.5-1.4
				l4.9-16.1h1.7l5.4,15.7c0.5,1.5,0.8,1.7,1.6,1.7v1h-5.7v-1c0.9,0,1.3-0.2,1.3-0.7c0-0.2-0.1-0.6-0.2-0.9L595.6,42.1z M595.2,40.8
				l-2.6-7.9h-0.1l-2.3,7.9H595.2z"/>
		</g>
		<g>
			<path class="st0" d="M620.7,36.2c-0.7,0-0.9,0.2-1.2,1.2l-3.4,10.5h-1.6l-2.7-9l0,0l-2.8,9h-1.7l-3.5-10
				c-0.6-1.6-0.7-1.7-1.5-1.7v-0.8h5v0.8c-0.8,0-1.1,0.1-1.1,0.6c0,0.2,0.1,0.5,0.2,0.9l2.3,7h0.1l2.3-7.6l-0.2-0.5
				c-0.1-0.4-0.4-0.4-1.2-0.4v-0.8h4.9v0.8c-0.8,0-1.1,0.1-1.1,0.5c0,0.2,0,0.4,0.1,0.8l2.2,7.2h0.1l2.3-7.5c0-0.2,0.1-0.3,0.1-0.5
				c0-0.4-0.3-0.5-1.1-0.5v-0.8h3.3v0.8H620.7z"/>
		</g>
		<g>
			<path class="st0" d="M630.6,38.7c0-1.9-0.7-2.6-2.1-2.6c-1.3,0-2,0.8-2.4,1.9c-0.2,0.5-0.5,0.8-1.3,0.8c-0.8,0-1-0.5-1-1
				c0-1.2,1.5-2.7,4.9-2.7c2.5,0,4.7,0.7,4.7,4.1V45c0,1.3,0.3,1.8,0.8,1.8c0.3,0,0.5-0.1,0.7-0.2l0.2,0.8c-0.6,0.2-1.2,0.4-2.1,0.4
				c-1.2,0-1.8-0.4-2.2-1.4h-0.1c-0.8,0.8-1.9,1.5-3.8,1.5c-1.8,0-3.7-1-3.7-3.2c0-1.3,0.5-2.3,1.7-3c0.9-0.6,2.3-1.1,4-1.5l1.6-0.4
				L630.6,38.7L630.6,38.7z M630.6,40.7c-2.2,0.7-4.5,1.5-4.5,3.6c0,1.9,1.2,2.3,2.1,2.3c1.1,0,1.9-0.6,2.4-1.2V40.7z"/>
		</g>
		<g>
			<path class="st0" d="M637.6,38.7l0.5-3.3h8.9l0.3,0.4l-6.8,10.8h3.9c1.2,0,1.5-0.5,2-2.5h0.9l-0.5,3.5h-9.5l-0.3-0.5l6.9-10.8
				h-3.6c-1.3,0-1.5,0.5-1.9,2.3h-0.8V38.7z"/>
		</g>
		<g>
			<path class="st0" d="M657.6,38.7c0-1.9-0.7-2.6-2.1-2.6c-1.3,0-2,0.8-2.4,1.9c-0.2,0.5-0.5,0.8-1.3,0.8c-0.8,0-1-0.5-1-1
				c0-1.2,1.5-2.7,4.9-2.7c2.5,0,4.7,0.7,4.7,4.1V45c0,1.3,0.3,1.8,0.8,1.8c0.3,0,0.5-0.1,0.7-0.2l0.2,0.8c-0.6,0.2-1.2,0.4-2.1,0.4
				c-1.2,0-1.8-0.4-2.2-1.4h-0.1c-0.8,0.8-1.9,1.5-3.8,1.5c-1.8,0-3.7-1-3.7-3.2c0-1.3,0.5-2.3,1.7-3c0.9-0.6,2.3-1.1,4-1.5l1.6-0.4
				L657.6,38.7L657.6,38.7z M657.6,40.7c-2.2,0.7-4.5,1.5-4.5,3.6c0,1.9,1.2,2.3,2.1,2.3c1.1,0,1.9-0.6,2.4-1.2V40.7z"/>
		</g>
		<g>
			<path class="st0" d="M682.2,36.2c-0.7,0-0.9,0.2-1.2,1.2l-3.4,10.5H676l-2.7-9l0,0l-2.8,9h-1.7l-3.5-10c-0.6-1.6-0.7-1.7-1.5-1.7
				v-0.8h5v0.8c-0.8,0-1.1,0.1-1.1,0.6c0,0.2,0.1,0.5,0.2,0.9l2.3,7h0.1l2.3-7.6l-0.2-0.5c-0.1-0.4-0.4-0.4-1.2-0.4v-0.8h4.9v0.8
				c-0.8,0-1.1,0.1-1.1,0.5c0,0.2,0,0.4,0.1,0.8l2.2,7.2h0.1l2.3-7.5c0-0.2,0.1-0.3,0.1-0.5c0-0.4-0.3-0.5-1.1-0.5v-0.8h3.3v0.8
				H682.2z"/>
		</g>
		<g>
			<path class="st0" d="M692.1,38.7c0-1.9-0.7-2.6-2.1-2.6c-1.3,0-2,0.8-2.4,1.9c-0.2,0.5-0.5,0.8-1.3,0.8c-0.8,0-1-0.5-1-1
				c0-1.2,1.5-2.7,4.9-2.7c2.5,0,4.7,0.7,4.7,4.1V45c0,1.3,0.3,1.8,0.8,1.8c0.3,0,0.5-0.1,0.7-0.2l0.2,0.8c-0.6,0.2-1.2,0.4-2.1,0.4
				c-1.2,0-1.8-0.4-2.2-1.4h-0.1c-0.8,0.8-1.9,1.5-3.8,1.5c-1.8,0-3.7-1-3.7-3.2c0-1.3,0.5-2.3,1.7-3c0.9-0.6,2.3-1.1,4-1.5l1.6-0.4
				L692.1,38.7L692.1,38.7z M692.1,40.7c-2.2,0.7-4.5,1.5-4.5,3.6c0,1.9,1.2,2.3,2.1,2.3c1.1,0,1.9-0.6,2.4-1.2V40.7z"/>
		</g>
		<g>
			<path class="st0" d="M712.5,39.7l-4.2-7.5c-0.8-1.5-1.1-1.7-2-1.7v-1h6.2v1c-0.9,0-1.4,0.1-1.4,0.5c0,0.2,0.2,0.6,0.4,1.1l3.2,6
				h0.1l3-5.9c0.3-0.6,0.4-0.9,0.4-1.2c0-0.4-0.3-0.5-1.1-0.5v-1h4.2v1c-0.9,0-1.1,0.2-1.8,1.5l-4.1,7.7v4.9c0,1.8,0.2,2,2.2,2v1
				h-7.3v-1c2,0,2.2-0.2,2.2-2V39.7z"/>
		</g>
		<g>
			<path class="st0" d="M730,38.7c0-1.9-0.7-2.6-2.1-2.6c-1.3,0-2,0.8-2.4,1.9c-0.2,0.5-0.5,0.8-1.3,0.8c-0.8,0-1-0.5-1-1
				c0-1.2,1.5-2.7,4.9-2.7c2.5,0,4.7,0.7,4.7,4.1V45c0,1.3,0.3,1.8,0.8,1.8c0.3,0,0.5-0.1,0.7-0.2l0.2,0.8c-0.6,0.2-1.2,0.4-2.1,0.4
				c-1.2,0-1.8-0.4-2.2-1.4h-0.1c-0.8,0.8-1.9,1.5-3.8,1.5c-1.8,0-3.7-1-3.7-3.2c0-1.3,0.5-2.3,1.7-3c0.9-0.6,2.3-1.1,4-1.5l1.6-0.4
				L730,38.7L730,38.7z M730,40.7c-2.2,0.7-4.5,1.5-4.5,3.6c0,1.9,1.2,2.3,2.1,2.3c1.1,0,1.9-0.6,2.4-1.2V40.7z"/>
		</g>
		<g>
			<path class="st0" d="M748.2,37.2c0.9-1.1,2.2-2.1,4-2.1c1.8,0,3.5,0.9,3.5,4.2V45c0,1.6,0.1,1.8,1.3,1.8v0.8h-5.3v-0.8
				c1.1,0,1.3-0.2,1.3-1.7v-5.6c0-1.6-0.3-3.2-1.8-3.2c-1.1,0-2,0.8-2.8,2.1V45c0,1.6,0.1,1.8,1.3,1.8v0.8h-5.3v-0.8
				c1.1,0,1.2-0.2,1.2-1.7v-5.5c0-1.3-0.1-3.2-1.7-3.2c-0.9,0-1.8,0.8-2.8,2.1V45c0,1.6,0.1,1.8,1.3,1.8v0.8h-5.6v-0.8
				c1.4,0,1.5-0.2,1.5-1.9v-6c0-1.6-0.1-1.9-1.5-1.8v-0.8c1.3-0.2,2.6-0.5,3.8-1.2l0.4,0.2l0.1,1.8l0,0c0.9-1,2.2-2,3.8-2
				C746.4,35.1,747.6,35.7,748.2,37.2L748.2,37.2z"/>
		</g>
		<g>
			<path class="st0" d="M767.1,38.7c0-1.9-0.7-2.6-2.1-2.6c-1.3,0-2,0.8-2.4,1.9c-0.2,0.5-0.5,0.8-1.3,0.8c-0.8,0-1-0.5-1-1
				c0-1.2,1.5-2.7,4.9-2.7c2.5,0,4.7,0.7,4.7,4.1V45c0,1.3,0.3,1.8,0.8,1.8c0.3,0,0.5-0.1,0.7-0.2l0.2,0.8c-0.6,0.2-1.2,0.4-2.1,0.4
				c-1.2,0-1.8-0.4-2.2-1.4h-0.1c-0.8,0.8-1.9,1.5-3.8,1.5c-1.8,0-3.7-1-3.7-3.2c0-1.3,0.5-2.3,1.7-3c0.9-0.6,2.3-1.1,4-1.5l1.6-0.4
				L767.1,38.7L767.1,38.7z M767.1,40.7c-2.2,0.7-4.5,1.5-4.5,3.6c0,1.9,1.2,2.3,2.1,2.3c1.1,0,1.9-0.6,2.4-1.2V40.7z"/>
		</g>
		<g>
			<path class="st0" d="M785.3,37.2c0.9-1.1,2.2-2.1,4-2.1c1.8,0,3.5,0.9,3.5,4.2V45c0,1.6,0.1,1.8,1.3,1.8v0.8h-5.3v-0.8
				c1.1,0,1.3-0.2,1.3-1.7v-5.6c0-1.6-0.3-3.2-1.8-3.2c-1.1,0-2,0.8-2.8,2.1V45c0,1.6,0.1,1.8,1.3,1.8v0.8h-5.3v-0.8
				c1.1,0,1.2-0.2,1.2-1.7v-5.5c0-1.3-0.1-3.2-1.7-3.2c-0.9,0-1.8,0.8-2.8,2.1V45c0,1.6,0.1,1.8,1.3,1.8v0.8h-5.6v-0.8
				c1.4,0,1.5-0.2,1.5-1.9v-6c0-1.6-0.1-1.9-1.5-1.8v-0.8c1.3-0.2,2.6-0.5,3.8-1.2l0.4,0.2l0.1,1.8l0,0c0.9-1,2.2-2,3.8-2
				C783.5,35.1,784.7,35.7,785.3,37.2L785.3,37.2z"/>
		</g>
		<g>
			<path class="st0" d="M796.8,41.4c0-3.7,1.7-6.3,6-6.3c4.5,0,6,3,6,6.3c0,2.4-0.6,4-1.6,5c-1.1,1-2.5,1.5-4.3,1.5
				C799.2,47.9,796.8,46.2,796.8,41.4z M799.7,41.5c0,2.4,0.4,5.4,3.1,5.4c2.4,0,3.1-2.5,3.1-5.4c0-2.7-0.5-5.4-3.1-5.4
				C800.1,36.1,799.7,39,799.7,41.5z"/>
		</g>
		<g>
			<path class="st0" d="M811.6,36.4v-0.8c1.9-0.2,2.8-1.3,3.5-3.9h0.8v3.7h3.1v1h-3.1v8.2c0,1.5,0.5,2.1,1.4,2.1
				c0.7,0,1.2-0.2,1.8-0.7l0.5,0.8c-0.8,0.7-1.8,1.1-3.1,1.1c-1.7,0-3.3-0.7-3.3-3.3v-8.2L811.6,36.4L811.6,36.4z"/>
		</g>
		<g>
			<path class="st0" d="M822,41.4c0-3.7,1.7-6.3,6-6.3c4.5,0,6,3,6,6.3c0,2.4-0.6,4-1.6,5c-1.1,1-2.5,1.5-4.3,1.5
				C824.5,47.9,822,46.2,822,41.4z M824.9,41.5c0,2.4,0.4,5.4,3.1,5.4c2.4,0,3.1-2.5,3.1-5.4c0-2.7-0.5-5.4-3.1-5.4
				S824.9,39,824.9,41.5z"/>
		</g>
		<g>
			<path class="st0" d="M857.8,43.2l-0.8,4.4h-12v-1c1.8,0,2-0.2,2-2V32.5c0-1.8-0.2-2-2-2v-1h6.9v1c-1.9,0-2,0.2-2,2v12.7
				c0,1,0.2,1.1,0.8,1.1h3.5c1.5,0,1.7-0.2,2.4-3.2h1.2V43.2z"/>
		</g>
		<g>
			<path class="st0" d="M867.8,38.7c0-1.9-0.7-2.6-2.1-2.6c-1.3,0-2,0.8-2.4,1.9c-0.2,0.5-0.5,0.8-1.3,0.8c-0.8,0-1-0.5-1-1
				c0-1.2,1.5-2.7,4.9-2.7c2.5,0,4.7,0.7,4.7,4.1V45c0,1.3,0.3,1.8,0.8,1.8c0.3,0,0.5-0.1,0.7-0.2l0.2,0.8c-0.6,0.2-1.2,0.4-2.1,0.4
				c-1.2,0-1.8-0.4-2.2-1.4h-0.1c-0.8,0.8-1.9,1.5-3.8,1.5c-1.8,0-3.7-1-3.7-3.2c0-1.3,0.5-2.3,1.7-3c0.9-0.6,2.3-1.1,4-1.5l1.6-0.4
				L867.8,38.7L867.8,38.7z M867.8,40.7c-2.2,0.7-4.5,1.5-4.5,3.6c0,1.9,1.2,2.3,2.1,2.3c1.1,0,1.9-0.6,2.4-1.2V40.7z"/>
		</g>
		<g>
			<path class="st0" d="M892.5,36.2c-0.7,0-0.9,0.2-1.2,1.2l-3.4,10.5h-1.6l-2.7-9l0,0l-2.8,9h-1.7l-3.5-10
				c-0.6-1.6-0.7-1.7-1.5-1.7v-0.8h5v0.8c-0.8,0-1.1,0.1-1.1,0.6c0,0.2,0.1,0.5,0.2,0.9l2.3,7h0.1l2.3-7.6l-0.2-0.5
				c-0.1-0.4-0.4-0.4-1.2-0.4v-0.8h4.9v0.8c-0.8,0-1.1,0.1-1.1,0.5c0,0.2,0,0.4,0.1,0.8l2.2,7.2h0.1l2.3-7.5c0-0.2,0.1-0.3,0.1-0.5
				c0-0.4-0.3-0.5-1.1-0.5v-0.8h3.3v0.8H892.5z"/>
		</g>
		<g>
			<path class="st0" d="M903.1,38.6c0-5.1,2-9.4,7.7-9.4c6.2,0,7.7,4.9,7.7,9.4c0,4.8-1.7,9.4-7.7,9.4
				C905.2,48,903.1,44.1,903.1,38.6z M907.6,31.9c-0.9,1.2-1.4,3.2-1.4,6.7c0,3.2,0.5,8.3,4.6,8.3c1.3,0,2.5-0.6,3.2-1.6
				c0.9-1.5,1.4-3.8,1.4-6.6c0-3.6-0.5-8.3-4.6-8.3C910.1,30.3,908.7,30.4,907.6,31.9z"/>
		</g>
		<g>
			<path class="st0" d="M921.7,46.8c1.5,0,1.7-0.2,1.7-2v-8.4h-1.7v-1h1.7v-1.7c0-4,2.4-4.9,4.4-4.9c2.3,0,3.6,1.4,3.6,2.4
				c0,0.7-0.3,1.1-1,1.1c-0.8,0-1.1-0.6-1.3-1.3c-0.3-0.6-0.5-1.3-1.2-1.3c-1.5,0-1.7,2.3-1.7,3.9v1.7h2.8v1h-2.8v8.5
				c0,1.7,0.1,1.9,2,1.9v0.8h-6.4L921.7,46.8L921.7,46.8z"/>
		</g>
		<g>
			<path class="st0" d="M932.2,46.8c1.5,0,1.7-0.2,1.7-2v-8.4h-1.7v-1h1.7v-1.7c0-4,2.4-4.9,4.4-4.9c2.3,0,3.6,1.4,3.6,2.4
				c0,0.7-0.3,1.1-1,1.1c-0.8,0-1.1-0.6-1.3-1.3c-0.3-0.6-0.5-1.3-1.2-1.3c-1.5,0-1.7,2.3-1.7,3.9v1.7h2.8v1h-2.8v8.5
				c0,1.7,0.1,1.9,2,1.9v0.8h-6.4L932.2,46.8L932.2,46.8z"/>
		</g>
		<g>
			<path class="st0" d="M948.6,35.3v9.6c0,1.7,0.1,1.9,1.5,1.9v0.8h-6v-0.8c1.5,0,1.6-0.2,1.6-1.9v-6.1c0-1.7-0.1-1.8-1.6-1.8v-0.8
				c1.4-0.1,2.7-0.5,4.1-1.2L948.6,35.3z M948.7,31.9c0,1.1-0.7,1.8-1.6,1.8s-1.6-0.7-1.6-1.8c0-1.1,0.7-1.8,1.6-1.8
				C948,30.1,948.7,30.8,948.7,31.9z"/>
		</g>
		<g>
			<path class="st0" d="M963.2,45.2c-1,1.5-2.3,2.7-4.6,2.7c-5.2,0-5.7-4.6-5.7-6.5c0-3.8,2.2-6.3,5.9-6.3c2.5,0,4.1,1.4,4.1,2.6
				c0,0.7-0.3,1.1-0.9,1.1c-0.8,0-1.1-0.7-1.4-1.4c-0.3-0.8-0.8-1.3-1.7-1.3c-1.5,0-3,1.6-3,5.3c0,4.7,2.2,5.4,3.3,5.4
				c1.7,0,2.7-1.3,3.2-2.1L963.2,45.2z"/>
		</g>
		<g>
			<path class="st0" d="M976.9,45c-1.1,2-2.8,3-4.9,3c-3,0-5.9-1.5-5.9-6.7c0-3.1,1.7-6.2,5.6-6.2c4.5,0,5.3,4,5.3,6.3h-7.9
				c0,1.6,0.2,2.9,0.9,4c0.6,0.9,1.5,1.5,2.6,1.5c1.7,0,2.9-1,3.6-2.3L976.9,45z M974.1,40.4c0-1.4-0.2-4.3-2.4-4.3
				c-1.1,0-2.6,0.9-2.7,4.3H974.1z"/>
		</g>
	</g>
</g>
</svg>
