<?xml version="1.0" encoding="utf-8"?>
<!-- Generator: Adobe Illustrator 25.0.0, SVG Export Plug-In . SVG Version: 6.00 Build 0)  -->
<svg version="1.1" id="レイヤー_1" xmlns="http://www.w3.org/2000/svg" xmlns:xlink="http://www.w3.org/1999/xlink" x="0px"
	 y="0px" viewBox="0 0 180 180" style="enable-background:new 0 0 180 180;" xml:space="preserve">
<style type="text/css">
	.st0{fill:#DDF0FB;}
	.st1{fill:#E3F3FB;}
	.st2{fill:#B8E2F7;}
	.st3{fill:#D6EDFA;}
	.st4{fill:#B0E0F7;}
	.st5{fill:#9AD9F5;}
	.st6{fill:#C0E5F8;}
	.st7{fill:#B0E0F6;}
	.st8{fill:#8DD4F1;}
	.st9{fill:#C4E7F6;}
	.st10{fill:#9FDAF5;}
	.st11{fill:url(#SVGID_1_);}
	.st12{fill:url(#SVGID_2_);}
	.st13{fill:url(#SVGID_3_);}
	.st14{fill:url(#SVGID_4_);}
	.st15{fill:url(#SVGID_5_);}
	.st16{fill:url(#SVGID_6_);}
	.st17{fill:url(#SVGID_7_);}
	.st18{fill:url(#SVGID_8_);}
	.st19{fill:url(#SVGID_9_);}
</style>
<g>
	<polygon class="st0" points="137.8,54.4 137.8,41.6 112.6,52.3 112.6,58.3 	"/>
	<polygon class="st1" points="162.1,65.1 162.1,50.5 137.8,54.4 137.8,64 	"/>
	<polygon class="st2" points="112.6,62.8 137.8,64 137.8,54.4 112.6,58.3 	"/>
	<polygon class="st3" points="112.6,38.4 90,61.8 112.6,52.3 	"/>
	<polygon class="st4" points="112.6,52.3 90,61.8 112.6,58.3 	"/>
	<polygon class="st5" points="90,61.8 112.6,62.8 112.6,58.3 90,61.8 90,61.8 	"/>
	<polygon class="st6" points="67.4,52.3 42.2,41.6 42.2,54.4 67.4,58.3 	"/>
	<polygon class="st7" points="42.2,54.4 17.9,50.5 17.9,65.1 42.2,64 	"/>
	<polygon class="st8" points="67.4,62.8 67.4,58.3 42.2,54.4 42.2,64 	"/>
	<polygon class="st9" points="67.4,38.4 67.4,52.3 90,61.8 	"/>
	<polygon class="st10" points="90,61.8 67.4,52.3 67.4,58.3 	"/>
	
		<linearGradient id="SVGID_1_" gradientUnits="userSpaceOnUse" x1="-2104.5696" y1="60.5648" x2="-2082.0002" y2="60.5648" gradientTransform="matrix(1 0 0 1 2172 0)">
		<stop  offset="0" style="stop-color:#89D5F5"/>
		<stop  offset="1" style="stop-color:#7BD0F3"/>
	</linearGradient>
	<polygon class="st11" points="67.4,62.8 90,61.8 90,61.8 67.4,58.3 	"/>
	
		<linearGradient id="SVGID_2_" gradientUnits="userSpaceOnUse" x1="-2037.0001" y1="69.6158" x2="-2037.0001" y2="137.8679" gradientTransform="matrix(1 0 0 1 2172 0)">
		<stop  offset="0" style="stop-color:#EFF5F8"/>
		<stop  offset="1" style="stop-color:#EBF3F7"/>
	</linearGradient>
	<polyline class="st12" points="90,138.9 180,141.6 180,65.9 162.1,65.1 162.1,130.9 90,138.9 	"/>
	
		<linearGradient id="SVGID_3_" gradientUnits="userSpaceOnUse" x1="-2172" y1="103.3625" x2="-2082.0002" y2="103.3625" gradientTransform="matrix(1 0 0 1 2172 0)">
		<stop  offset="0" style="stop-color:#3CC2E9"/>
		<stop  offset="8.559626e-02" style="stop-color:#34C0E8"/>
		<stop  offset="0.4501" style="stop-color:#18BAE7"/>
		<stop  offset="0.7674" style="stop-color:#06B5E5"/>
		<stop  offset="1" style="stop-color:#00B4E5"/>
	</linearGradient>
	<polygon class="st13" points="90,138.9 17.9,130.9 17.9,65.1 0,65.9 0,141.6 	"/>
	
		<linearGradient id="SVGID_4_" gradientUnits="userSpaceOnUse" x1="-2082.0002" y1="101.4454" x2="-2009.8774" y2="101.4454" gradientTransform="matrix(1 0 0 1 2172 0)">
		<stop  offset="0" style="stop-color:#D4E9F5"/>
		<stop  offset="0.8845" style="stop-color:#D0EBF8"/>
		<stop  offset="1" style="stop-color:#CFEBF9"/>
	</linearGradient>
	<polygon class="st14" points="137.8,126 90,138.9 162.1,130.9 162.1,65.1 137.8,64 	"/>
	
		<linearGradient id="SVGID_5_" gradientUnits="userSpaceOnUse" x1="-2082.0002" y1="100.8766" x2="-2034.2423" y2="100.8766" gradientTransform="matrix(1 0 0 1 2172 0)">
		<stop  offset="3.618618e-04" style="stop-color:#C2E4F5"/>
		<stop  offset="0.6298" style="stop-color:#BEE4F6"/>
		<stop  offset="1" style="stop-color:#B8E3F8"/>
	</linearGradient>
	<polygon class="st15" points="137.8,64 112.6,62.8 112.6,125.8 90,138.9 137.8,126 	"/>
	
		<linearGradient id="SVGID_6_" gradientUnits="userSpaceOnUse" x1="-2082.0002" y1="100.3668" x2="-2059.4302" y2="100.3668" gradientTransform="matrix(1 0 0 1 2172 0)">
		<stop  offset="0" style="stop-color:#B0DDF3"/>
		<stop  offset="0.2008" style="stop-color:#A8DCF5"/>
		<stop  offset="0.2072" style="stop-color:#A8DCF5"/>
		<stop  offset="0.4169" style="stop-color:#A1DAF5"/>
		<stop  offset="1" style="stop-color:#9FDAF5"/>
	</linearGradient>
	<polygon class="st16" points="112.6,62.8 90,61.8 90,61.8 90,138.9 112.6,125.8 	"/>
	
		<linearGradient id="SVGID_7_" gradientUnits="userSpaceOnUse" x1="-2154.1213" y1="101.4454" x2="-2082.0002" y2="101.4454" gradientTransform="matrix(1 0 0 1 2172 0)">
		<stop  offset="0" style="stop-color:#63CCF2"/>
		<stop  offset="0.3527" style="stop-color:#00C4F1"/>
		<stop  offset="0.4442" style="stop-color:#00C4F1"/>
		<stop  offset="1" style="stop-color:#00C4F1"/>
	</linearGradient>
	<polygon class="st17" points="90,138.9 42.2,126 42.2,64 17.9,65.1 17.9,130.9 	"/>
	
		<linearGradient id="SVGID_8_" gradientUnits="userSpaceOnUse" x1="-2129.7573" y1="100.8766" x2="-2082.0002" y2="100.8766" gradientTransform="matrix(1 0 0 1 2172 0)">
		<stop  offset="0" style="stop-color:#6ECEF3"/>
		<stop  offset="0.1097" style="stop-color:#6ACDF3"/>
		<stop  offset="0.3875" style="stop-color:#63CCF2"/>
		<stop  offset="0.7363" style="stop-color:#4BC9F1"/>
		<stop  offset="0.9992" style="stop-color:#3EC8F1"/>
	</linearGradient>
	<polygon class="st18" points="67.4,62.8 42.2,64 42.2,126 90,138.9 67.4,125.8 	"/>
	
		<linearGradient id="SVGID_9_" gradientUnits="userSpaceOnUse" x1="-2104.5696" y1="100.3668" x2="-2082.0002" y2="100.3668" gradientTransform="matrix(1 0 0 1 2172 0)">
		<stop  offset="0" style="stop-color:#96D8F5"/>
		<stop  offset="2.582080e-02" style="stop-color:#93D7F5"/>
		<stop  offset="0.1172" style="stop-color:#8FD6F5"/>
		<stop  offset="0.2829" style="stop-color:#87D4F4"/>
		<stop  offset="0.6727" style="stop-color:#78D0F3"/>
		<stop  offset="0.9996" style="stop-color:#73CFF3"/>
	</linearGradient>
	<polygon class="st19" points="67.4,62.8 67.4,125.8 90,138.9 90,61.8 	"/>
</g>
</svg>
