<?xml version="1.0" encoding="utf-8"?>
<!-- Generator: Adobe Illustrator 24.2.3, SVG Export Plug-In . SVG Version: 6.00 Build 0)  -->
<svg version="1.1" id="レイヤー_1" xmlns="http://www.w3.org/2000/svg" xmlns:xlink="http://www.w3.org/1999/xlink" x="0px"
	 y="0px" viewBox="0 0 246.34 314.45" style="enable-background:new 0 0 246.34 314.45;" xml:space="preserve">
<style type="text/css">
	.st0{fill:#D8EFFC;}
	.st1{fill:#DFF2FC;}
	.st2{fill:#ACDDF7;}
	.st3{fill:#CEEBFB;}
	.st4{fill:#A5DBF7;}
	.st5{fill:#8CD2F5;}
	.st6{fill:#B5E1F8;}
	.st7{fill:#A5DBF6;}
	.st8{fill:#7FCEF0;}
	.st9{fill:#BBE3F6;}
	.st10{fill:#92D4F5;}
	.st11{fill:url(#SVGID_1_);}
	.st12{fill:url(#SVGID_2_);}
	.st13{fill:url(#SVGID_3_);}
	.st14{fill:url(#SVGID_4_);}
	.st15{fill:url(#SVGID_5_);}
	.st16{fill:url(#SVGID_6_);}
	.st17{fill:url(#SVGID_7_);}
	.st18{fill:url(#SVGID_8_);}
	.st19{fill:url(#SVGID_9_);}
</style>
<g>
	<g>
		<path d="M142.94,258.08l-3.08-2.19l-1.58,2.24h-1.81v-3.72l0.02-0.02l1.12-1.2l-2.89-2.16l-1.24,1.79h-9.15v-3.98h8.86v1.1
			l2.56-0.83v-5.6l0.01-0.02l1.07-1.23l-2.87-2.02l-1.23,1.6h-8.4v-3.74h16.75l0.62-0.87l-3.08-2.19l-1.57,2.24h-12.71v-3.2
			l1.03-1.45h-3.63v4.66h-17.62v0.83h17.62v3.74l-8.46,0l-2.83-1.25v10.19l2.51-0.91v-1.04h8.78v3.98h-12.85v0.83h12.85v4.49h-18.12
			v0.83h18.12v4.57h-13.1v0.83h13.1V268c0,0.84-0.29,1.1-1.23,1.1h-6.32v0.54c3.42,0.2,5.37,0.43,5.43,2.56
			c3.92-0.46,4.71-1.92,4.71-4.12v-3.72h9.62v3l2.52-0.87v-7.54l5.84,0L142.94,258.08z M124.34,242.67h8.86V248h-8.86V242.67z
			 M121.74,248h-8.78v-5.33h8.78V248z M133.95,263.53h-9.62v-4.57h9.62V263.53z M133.95,258.13h-9.62v-4.49h9.62V258.13z"/>
		<g>
			<polygon points="213.21,236.82 213.83,235.95 210.75,233.76 209.18,235.99 194.5,235.99 194.5,236.82 			"/>
			<path d="M233.29,248.4l0.62-0.87l-3.08-2.19l-1.57,2.24H218.1v-9.23l14.08-3.28l-3.39-2.47c-2.5,1.5-6.54,3.52-10.08,4.67
				l-3.13-1.1v14.28c0,8.52-1.26,15.31-7.42,20.73l0.43,0.43c8.35-5.23,9.5-13.26,9.5-21.16v-2.03h7.34v23.84l2.56-0.9V248.4H233.29
				z"/>
			<path d="M210.96,256.99v-11.83l0.01-0.02l0.99-1.34l-2.75-1.95l-1.24,1.65h-8.1l-3.11-1.34v10.73c0,6.64-0.25,13.04-3.22,18.3
				l0.47,0.36c4.44-4.7,5.15-11.41,5.27-16.65h9.15v2.88L210.96,256.99z M199.29,254.07v-9.75h9.16v9.75H199.29z"/>
		</g>
		<path d="M212.13,190.57l0.17-0.33v15.75h-9.39v0.83h9.39v9.69l2.6-0.92l0-8.77h8.17l0.61-0.87l-3.08-2.2l-1.57,2.23l-4.13,0
			v-18.04l0.18,0.44c3.19,8.39,9.06,15.87,15.7,20.02l2.72-2.65c-7.08-3.31-14.02-10.14-17.7-17.43l-0.07-0.12h15.76l0.62-0.88
			l-3.08-2.2l-1.57,2.24l-12.56,0l0-8.14l1.44-2.05h-4.04v10.19h-17.82v0.84h15.55l-0.05,0.12c-3.21,7.69-9.19,15.13-16,19.92
			l0.36,0.49C202.12,204.39,208.27,198.11,212.13,190.57z"/>
		<polygon points="155.43,187.37 151.4,187.37 151.4,216.51 153.96,215.56 153.96,211.72 182.24,211.72 182.24,215.5 184.84,214.52 
			184.85,189.83 186.57,187.37 182.24,187.37 182.24,210.89 169.3,210.89 169.3,179.72 170.91,177.43 166.7,177.43 166.7,210.89 
			153.96,210.89 153.96,189.47 		"/>
		<path d="M48.79,250.85l-1.58,2.24h-8.38v-9.91h10.19l0.62-0.88l-3.08-2.19l-1.57,2.24h-6.15v-7.32l1.1-1.57h-3.74v8.89h-9.27v0.83
			h9.27v9.91H24.17v0.83h9.9l-4.4,13.45l-5.61,0.25l1.54,3.15l20.61-3.75c0.74,1.53,1.2,2.99,1.5,4.17c0.2,0.8,0.81,1.15,1.27,1.15
			c0.87,0,1.47-0.9,1.47-2.18c0-2.42-2.13-6.17-8.11-9.46l-0.3,0.24c1.32,1.42,2.77,3.47,3.83,5.42l-14.64,0.91l6.5-13.35l13.51,0
			l0.62-0.88L48.79,250.85z"/>
		<path d="M96.32,242.1l-1.57,2.24h-1.13v-4.53l0.01-0.02l1.09-1.27l-2.85-2.03l-1.28,1.65h-6.37l0.01-4.22l0.93-1.32h-3.46v5.54
			h-9.23v0.83h9.23v5.37H70.04v0.83h11.67v5.53h-9.48v0.83h9.48v5.49H70.88v0.83h10.83v5.58H69.15v0.83h12.55v8.08l2.52-0.89v-7.19
			l13.21,0l0.62-0.87l-3.08-2.2l-1.57,2.24l-9.17,0v-5.58h11.19l0.62-0.88l-3.08-2.19l-1.58,2.24h-7.16v-5.49h6.84v1.48l2.56-0.82
			v-7.02h5.17l0.62-0.87L96.32,242.1z M91.06,250.7h-6.84v-5.53h6.84V250.7z M91.06,244.34h-6.84v-5.37h6.84V244.34z"/>
		<path d="M69.25,234.28l-2.67-1.45c-1.68,3.28-5.07,7.66-8.09,10.46l0.37,0.5C63.03,241.26,67.44,236.88,69.25,234.28z"/>
		<path d="M63.72,251.55v20.78l2.52-0.89v-21.4l-1.22,0.02c0,0,2.66-2.86,4.98-7.44l-2.66-1.23c-1.6,4.01-5.17,10.27-9.29,14.62
			l0.4,0.51C60.09,255.27,61.91,253.5,63.72,251.55z"/>
		<path d="M20.29,195.29l-0.26,0.23c1.32,1.24,2.49,3.23,2.85,4.87c0.12,0.53,0.59,1,1.22,1c0.81,0,1.39-0.74,1.39-1.69
			C25.48,199.03,25.11,196.71,20.29,195.29z"/>
		<g>
			<path d="M92.71,178.56H74.21l-2.94-1.26v11.54l2.39-0.82v-0.87h19.22v1.4l2.48-0.74v-7.35l0.89-1.29l-2.67-1.88L92.71,178.56z
				 M78.71,186.31h-4.95v-6.92h4.95V186.31z M85.82,186.31H80.8v-6.92h5.02V186.31z M92.88,186.31h-4.92v-6.92h4.92V186.31z"/>
			<path d="M68.41,196.38v0.83h6.54l0.02,0.03c0.93,1.16,1.64,3.03,1.74,4.55c0.02,0.28,0.15,0.75,0.54,0.91h-7.71v0.83h12.19v4.61
				H70.78v0.83h10.97v7.55l2.51-0.85v-6.7h11.16l0.62-0.87l-3.08-2.19l-1.57,2.24h-7.13v-4.61h13.18l0.61-0.87l-3.08-2.2l-1.57,2.24
				h-6.11l4.24-5.5h5.91l0.62-0.87l-3.08-2.2l-1.57,2.24h-9.27v-4.05h10.61l0.62-0.88l-3.08-2.19l-1.57,2.24h-6.58v-1.87l1.28-1.41
				h-3.75v3.29H71.28v0.83h10.38v4.05H68.41z M88.09,197.21l-1.66,5.5h-8.08c0.68-0.35,0.89-1.04,0.89-1.62
				c-0.01-1.23-1.89-3.09-3.07-3.71l-0.33-0.17H88.09z"/>
		</g>
		<g>
			<path d="M60.15,177.22l-0.18,0.3c3.06,2.33,3.83,4.07,4.13,4.61c0.23,0.42,0.68,0.83,1.2,0.83c0.72,0,1.37-0.63,1.37-1.5
				C66.67,179.96,64.96,177.96,60.15,177.22z"/>
			<path d="M58.76,187.71l-0.18,0.3c2.9,2.08,3.28,3.67,3.58,4.21c0.23,0.42,0.68,0.83,1.2,0.83c0.72,0,1.37-0.63,1.37-1.5
				C64.73,190.05,63.44,188.32,58.76,187.71z"/>
			<path d="M61.05,204.11c-0.17,0.23-0.44,0.15-1.34,0.15c-0.26,0-1.02,0-1.02,0v0.75c2.11,0.22,2.91,0.71,2.91,4.71
				c0,0.16-0.3,3.48-0.3,4.23c0,0.94,0.29,2.03,1.48,2.03c1.36,0,1.84-1.66,1.84-3.3c0-1.78-1.01-5.48-1-7.36
				c0.01-3.11,5.84-20.05,5.84-20.05l-0.7,0C68.75,185.27,63.44,200.93,61.05,204.11z"/>
		</g>
		<path d="M30.7,204.05l0.16-0.19v12.64l2.6-0.91v-12.65l0.16,0.23c3.38,4.77,9.38,9,16.07,11.32l2.12-2.86
			c-5.49-1.24-12.88-4.29-17.11-8.34l-0.16-0.15h15.47l0.62-0.88l-3.08-2.2l-1.58,2.24h-7.32l5.21-4.81l-2.75-1.92
			c-1.12,2.44-3.48,6.74-3.48,6.74h-4.19l0.01-6.76l0.02-0.02l1.52-1.33H45.5v1.78l2.52-0.83v-8.33l1.14-1.62l-2.85-1.99l-1.2,1.69
			h-6.9v-5.03l11.8,0l0.62-0.88l-3.08-2.19l-1.58,2.24H13.32v0.83h12.66v5.03h-6.91l-2.89-1.3v12.72c1.1-0.36,2.27-0.76,2.52-0.86
			v-1.26h12.18v8.11H13.03l0.01,0.83h14.63l-0.12,0.15c-3.49,4.38-9,8.34-15.11,10.86l0.26,0.56
			C20.55,212.31,26.78,208.63,30.7,204.05z M25.97,193.37h-7.28v-7.64h7.28V193.37z M38.22,185.73h7.28v7.64h-7.28V185.73z
			 M28.45,179.88h7.35v5.03h-7.35V179.88z M28.46,193.37v-7.64h7.34v7.64H28.46z"/>
		<g>
			<path d="M18.89,298.71h-3.35l-0.44,1.6c-0.09,0.31-0.14,0.55-0.14,0.71c0,0.31,0.2,0.38,0.72,0.38v0.57h-2.39v-0.57
				c0.48,0,0.66-0.15,0.88-0.81l2.87-9.39h1.02l3.14,9.2c0.28,0.85,0.45,1,0.95,1v0.57h-3.32v-0.57c0.55,0,0.74-0.11,0.74-0.38
				c0-0.14-0.04-0.32-0.11-0.55L18.89,298.71z M18.66,298l-1.5-4.64h-0.04L15.78,298H18.66z"/>
			<path d="M32.9,295.11c-0.38,0-0.51,0.11-0.71,0.72l-1.97,6.13h-0.95l-1.6-5.25h-0.03L26,301.96h-0.98l-2.04-5.84
				c-0.32-0.95-0.42-1-0.89-1v-0.5h2.93v0.5c-0.45,0-0.62,0.07-0.62,0.33c0,0.13,0.04,0.3,0.11,0.52l1.36,4.12h0.04l1.37-4.44
				l-0.1-0.28c-0.09-0.21-0.21-0.24-0.69-0.24v-0.5h2.89v0.5c-0.45,0-0.64,0.06-0.64,0.31c0,0.11,0.03,0.26,0.09,0.45l1.29,4.22
				h0.04l1.36-4.4c0.03-0.11,0.06-0.2,0.06-0.27c0-0.23-0.17-0.31-0.62-0.31v-0.5h1.95V295.11z"/>
			<path d="M38.33,296.74c0-1.09-0.43-1.53-1.23-1.53c-0.74,0-1.16,0.44-1.41,1.12c-0.11,0.3-0.3,0.48-0.74,0.48
				c-0.44,0-0.61-0.27-0.61-0.58c0-0.71,0.89-1.58,2.87-1.58c1.46,0,2.74,0.38,2.74,2.39v3.41c0,0.74,0.16,1.03,0.45,1.03
				c0.16,0,0.3-0.04,0.41-0.11l0.11,0.48c-0.32,0.13-0.68,0.21-1.24,0.21c-0.72,0-1.08-0.25-1.26-0.79h-0.06
				c-0.49,0.5-1.12,0.89-2.23,0.89c-1.03,0-2.14-0.59-2.14-1.88c0-0.74,0.3-1.32,1.02-1.77c0.55-0.35,1.33-0.65,2.35-0.88l0.96-0.24
				V296.74z M38.33,297.95c-1.27,0.38-2.63,0.91-2.63,2.09c0,1.12,0.72,1.32,1.2,1.32c0.65,0,1.1-0.37,1.43-0.71V297.95z"/>
			<path d="M42.36,296.77l0.31-1.95h5.22l0.18,0.26l-3.96,6.3h2.29c0.72,0,0.88-0.27,1.16-1.46h0.55l-0.31,2.05h-5.55l-0.17-0.27
				l4.03-6.28h-2.08c-0.76,0-0.89,0.28-1.12,1.36H42.36z"/>
			<path d="M54.02,296.74c0-1.09-0.42-1.53-1.23-1.53c-0.74,0-1.16,0.44-1.41,1.12c-0.11,0.3-0.3,0.48-0.74,0.48
				c-0.44,0-0.61-0.27-0.61-0.58c0-0.71,0.89-1.58,2.87-1.58c1.46,0,2.74,0.38,2.74,2.39v3.41c0,0.74,0.16,1.03,0.45,1.03
				c0.16,0,0.3-0.04,0.41-0.11l0.11,0.48c-0.32,0.13-0.68,0.21-1.24,0.21c-0.72,0-1.08-0.25-1.26-0.79h-0.06
				c-0.49,0.5-1.12,0.89-2.23,0.89c-1.03,0-2.14-0.59-2.14-1.88c0-0.74,0.3-1.32,1.02-1.77c0.55-0.35,1.33-0.65,2.35-0.88l0.96-0.24
				V296.74z M54.02,297.95c-1.27,0.38-2.63,0.91-2.63,2.09c0,1.12,0.72,1.32,1.2,1.32c0.65,0,1.1-0.37,1.43-0.71V297.95z"/>
			<path d="M67.64,295.11c-0.38,0-0.51,0.11-0.71,0.72l-1.97,6.13h-0.95l-1.6-5.25h-0.03l-1.66,5.25h-0.98l-2.04-5.84
				c-0.32-0.95-0.42-1-0.89-1v-0.5h2.93v0.5c-0.45,0-0.62,0.07-0.62,0.33c0,0.13,0.04,0.3,0.11,0.52l1.36,4.12h0.04l1.37-4.44
				l-0.1-0.28c-0.09-0.21-0.21-0.24-0.69-0.24v-0.5h2.89v0.5c-0.45,0-0.64,0.06-0.64,0.31c0,0.11,0.03,0.26,0.09,0.45l1.29,4.22
				h0.04l1.36-4.4c0.03-0.11,0.06-0.2,0.06-0.27c0-0.23-0.17-0.31-0.62-0.31v-0.5h1.95V295.11z"/>
			<path d="M72.92,296.74c0-1.09-0.43-1.53-1.23-1.53c-0.74,0-1.16,0.44-1.41,1.12c-0.11,0.3-0.3,0.48-0.74,0.48
				c-0.44,0-0.61-0.27-0.61-0.58c0-0.71,0.89-1.58,2.87-1.58c1.46,0,2.74,0.38,2.74,2.39v3.41c0,0.74,0.16,1.03,0.45,1.03
				c0.16,0,0.3-0.04,0.41-0.11l0.11,0.48c-0.32,0.13-0.68,0.21-1.24,0.21c-0.72,0-1.08-0.25-1.26-0.79h-0.06
				c-0.49,0.5-1.12,0.89-2.23,0.89c-1.03,0-2.14-0.59-2.14-1.88c0-0.74,0.3-1.32,1.02-1.77c0.55-0.35,1.33-0.65,2.35-0.88l0.96-0.24
				V296.74z M72.92,297.95c-1.27,0.38-2.63,0.91-2.63,2.09c0,1.12,0.72,1.32,1.2,1.32c0.65,0,1.1-0.37,1.43-0.71V297.95z"/>
			<path d="M83.95,297.35l-2.45-4.39c-0.47-0.85-0.64-0.98-1.16-0.98v-0.58h3.59v0.58c-0.55,0-0.79,0.07-0.79,0.3
				c0,0.14,0.1,0.35,0.25,0.65l1.88,3.48h0.04l1.77-3.45c0.17-0.34,0.26-0.55,0.26-0.71c0-0.21-0.18-0.27-0.65-0.27v-0.58h2.43v0.58
				c-0.52,0-0.66,0.1-1.05,0.86l-2.4,4.49v2.89c0,1.03,0.1,1.17,1.27,1.17v0.57h-4.27v-0.57c1.19,0,1.27-0.14,1.27-1.17V297.35z"/>
			<path d="M93.8,296.74c0-1.09-0.42-1.53-1.23-1.53c-0.74,0-1.16,0.44-1.41,1.12c-0.11,0.3-0.3,0.48-0.74,0.48
				c-0.44,0-0.61-0.27-0.61-0.58c0-0.71,0.89-1.58,2.87-1.58c1.46,0,2.74,0.38,2.74,2.39v3.41c0,0.74,0.16,1.03,0.45,1.03
				c0.16,0,0.3-0.04,0.41-0.11l0.11,0.48c-0.32,0.13-0.68,0.21-1.24,0.21c-0.72,0-1.08-0.25-1.26-0.79h-0.06
				c-0.49,0.5-1.12,0.89-2.23,0.89c-1.03,0-2.14-0.59-2.14-1.88c0-0.74,0.3-1.32,1.02-1.77c0.55-0.35,1.33-0.65,2.35-0.88l0.96-0.24
				V296.74z M93.8,297.95c-1.27,0.38-2.63,0.91-2.63,2.09c0,1.12,0.72,1.32,1.2,1.32c0.65,0,1.1-0.37,1.43-0.71V297.95z"/>
			<path d="M104.21,295.86c0.55-0.64,1.27-1.23,2.32-1.23c1.03,0,2.04,0.51,2.04,2.48v3.31c0,0.93,0.09,1.05,0.75,1.05v0.5h-3.1
				v-0.5c0.64,0,0.74-0.11,0.74-0.99v-3.25c0-0.96-0.18-1.85-1.03-1.85c-0.64,0-1.15,0.48-1.63,1.22v3.83
				c0,0.96,0.08,1.05,0.74,1.05v0.5h-3.07v-0.5c0.67,0,0.72-0.1,0.72-0.99v-3.21c0-0.74-0.04-1.9-1.02-1.9
				c-0.52,0-1.03,0.44-1.63,1.23v3.81c0,0.96,0.07,1.06,0.74,1.06v0.5h-3.25v-0.5c0.83,0,0.91-0.11,0.91-1.12v-3.51
				c0-0.96-0.09-1.09-0.91-1.08v-0.45c0.74-0.1,1.53-0.31,2.22-0.68l0.21,0.11l0.06,1.06h0.01c0.55-0.61,1.3-1.18,2.24-1.18
				c0.89,0,1.6,0.35,1.89,1.23H104.21z"/>
			<path d="M114.91,296.74c0-1.09-0.43-1.53-1.23-1.53c-0.74,0-1.16,0.44-1.41,1.12c-0.11,0.3-0.3,0.48-0.74,0.48
				s-0.61-0.27-0.61-0.58c0-0.71,0.89-1.58,2.87-1.58c1.46,0,2.74,0.38,2.74,2.39v3.41c0,0.74,0.16,1.03,0.45,1.03
				c0.16,0,0.3-0.04,0.41-0.11l0.11,0.48c-0.32,0.13-0.68,0.21-1.24,0.21c-0.72,0-1.08-0.25-1.26-0.79h-0.06
				c-0.49,0.5-1.12,0.89-2.23,0.89c-1.03,0-2.14-0.59-2.14-1.88c0-0.74,0.3-1.32,1.02-1.77c0.55-0.35,1.33-0.65,2.35-0.88l0.96-0.24
				V296.74z M114.91,297.95c-1.27,0.38-2.63,0.91-2.63,2.09c0,1.12,0.72,1.32,1.2,1.32c0.65,0,1.1-0.37,1.43-0.71V297.95z"/>
			<path d="M125.16,295.86c0.55-0.64,1.27-1.23,2.32-1.23c1.03,0,2.04,0.51,2.04,2.48v3.31c0,0.93,0.09,1.05,0.75,1.05v0.5h-3.1
				v-0.5c0.64,0,0.74-0.11,0.74-0.99v-3.25c0-0.96-0.18-1.85-1.03-1.85c-0.64,0-1.15,0.48-1.63,1.22v3.83
				c0,0.96,0.08,1.05,0.74,1.05v0.5h-3.07v-0.5c0.66,0,0.72-0.1,0.72-0.99v-3.21c0-0.74-0.04-1.9-1.02-1.9
				c-0.52,0-1.03,0.44-1.63,1.23v3.81c0,0.96,0.07,1.06,0.74,1.06v0.5h-3.07v-0.5c0.83,0,0.91-0.11,0.91-1.12v-3.51
				c0-0.96-0.08-1.09-0.91-1.08v-0.45c0.74-0.1,1.35-0.31,2.04-0.68l0.21,0.11l0.06,1.06h0.01c0.55-0.61,1.3-1.18,2.24-1.18
				c0.89,0,1.6,0.35,1.89,1.23H125.16z"/>
			<path d="M131.38,298.36c0-2.14,1.02-3.71,3.49-3.71c2.64,0,3.49,1.77,3.49,3.71c0,1.43-0.35,2.36-0.96,2.94
				c-0.64,0.59-1.49,0.86-2.53,0.86C132.8,302.16,131.38,301.12,131.38,298.36z M133.08,298.4c0,1.43,0.26,3.18,1.78,3.18
				c1.41,0,1.78-1.47,1.78-3.18c0-1.6-0.31-3.18-1.78-3.18C133.32,295.22,133.08,296.96,133.08,298.4z"/>
			<path d="M139.68,295.22v-0.47c1.12-0.1,1.66-0.75,2.05-2.28h0.49v2.15h1.8v0.6h-1.8v4.81c0,0.86,0.27,1.22,0.82,1.22
				c0.38,0,0.69-0.13,1.03-0.38l0.3,0.47c-0.47,0.4-1.03,0.62-1.84,0.62c-0.99,0-1.92-0.4-1.92-1.92v-4.81H139.68z"/>
			<path d="M145.58,298.36c0-2.14,1.02-3.71,3.49-3.71c2.64,0,3.49,1.77,3.49,3.71c0,1.43-0.35,2.36-0.96,2.94
				c-0.64,0.59-1.49,0.86-2.53,0.86C147,302.16,145.58,301.12,145.58,298.36z M147.28,298.4c0,1.43,0.26,3.18,1.78,3.18
				c1.41,0,1.78-1.47,1.78-3.18c0-1.6-0.31-3.18-1.78-3.18C147.52,295.22,147.28,296.96,147.28,298.4z"/>
			<path d="M166.87,299.4l-0.49,2.56h-7.02v-0.57c1.03,0,1.15-0.14,1.15-1.19v-7.06c0-1.05-0.11-1.16-1.15-1.16v-0.58h4.03v0.58
				c-1.09,0-1.16,0.1-1.16,1.19v7.41c0,0.61,0.1,0.66,0.47,0.66h2.02c0.86,0,1-0.14,1.4-1.85H166.87z"/>
			<path d="M172.59,296.74c0-1.09-0.43-1.53-1.23-1.53c-0.74,0-1.16,0.44-1.41,1.12c-0.11,0.3-0.3,0.48-0.74,0.48
				c-0.44,0-0.61-0.27-0.61-0.58c0-0.71,0.89-1.58,2.87-1.58c1.46,0,2.74,0.38,2.74,2.39v3.41c0,0.74,0.16,1.03,0.45,1.03
				c0.16,0,0.3-0.04,0.41-0.11l0.11,0.48c-0.32,0.13-0.68,0.21-1.24,0.21c-0.72,0-1.08-0.25-1.26-0.79h-0.06
				c-0.49,0.5-1.12,0.89-2.23,0.89c-1.03,0-2.14-0.59-2.14-1.88c0-0.74,0.3-1.32,1.02-1.77c0.55-0.35,1.33-0.65,2.35-0.88l0.96-0.24
				V296.74z M172.59,297.95c-1.27,0.38-2.63,0.91-2.63,2.09c0,1.12,0.72,1.32,1.2,1.32c0.65,0,1.1-0.37,1.43-0.71V297.95z"/>
			<path d="M186.39,295.11c-0.38,0-0.51,0.11-0.71,0.72l-1.97,6.13h-0.95l-1.6-5.25h-0.03l-1.66,5.25h-0.98l-2.04-5.84
				c-0.32-0.95-0.42-1-0.89-1v-0.5h2.93v0.5c-0.45,0-0.62,0.07-0.62,0.33c0,0.13,0.04,0.3,0.11,0.52l1.36,4.12h0.04l1.37-4.44
				l-0.1-0.28c-0.09-0.21-0.21-0.24-0.69-0.24v-0.5h2.89v0.5c-0.45,0-0.64,0.06-0.64,0.31c0,0.11,0.03,0.26,0.09,0.45l1.29,4.22
				h0.04l1.36-4.4c0.03-0.11,0.06-0.2,0.06-0.27c0-0.23-0.17-0.31-0.62-0.31v-0.5h1.95V295.11z"/>
			<path d="M191.89,296.67c0-2.99,1.17-5.49,4.5-5.49c3.62,0,4.53,2.89,4.53,5.49c0,2.8-0.99,5.49-4.53,5.49
				C193.15,302.16,191.89,299.89,191.89,296.67z M194.52,292.74c-0.52,0.69-0.83,1.88-0.83,3.93c0,1.85,0.28,4.82,2.69,4.82
				c0.78,0,1.46-0.37,1.9-0.95c0.55-0.85,0.82-2.21,0.82-3.88c0-2.12-0.3-4.84-2.7-4.84C195.98,291.84,195.19,291.91,194.52,292.74z
				"/>
			<path d="M202.21,301.46c0.91,0,0.99-0.1,0.99-1.15v-4.91h-0.98v-0.6h0.98v-0.99c0-2.33,1.42-2.87,2.56-2.87
				c1.37,0,2.09,0.82,2.09,1.43c0,0.38-0.18,0.64-0.6,0.64c-0.48,0-0.64-0.37-0.78-0.75c-0.16-0.37-0.28-0.74-0.69-0.74
				c-0.86,0-0.98,1.33-0.98,2.29v0.99h1.61v0.6h-1.61v4.95c0,1.02,0.09,1.1,1.16,1.1v0.5h-3.76V301.46z"/>
			<path d="M207.35,301.46c0.91,0,0.99-0.1,0.99-1.15v-4.91h-0.98v-0.6h0.98v-0.99c0-2.33,1.41-2.87,2.56-2.87
				c1.37,0,2.09,0.82,2.09,1.43c0,0.38-0.18,0.64-0.6,0.64c-0.48,0-0.64-0.37-0.78-0.75c-0.16-0.37-0.28-0.74-0.69-0.74
				c-0.86,0-0.98,1.33-0.98,2.29v0.99h1.61v0.6h-1.61v4.95c0,1.02,0.09,1.1,1.16,1.1v0.5h-3.76V301.46z"/>
			<path d="M215.94,294.73v5.63c0,0.98,0.07,1.1,0.91,1.1v0.5h-3.49v-0.5c0.91,0,0.96-0.13,0.96-1.12v-3.54
				c0-0.99-0.04-1.05-0.96-1.05v-0.45c0.83-0.09,1.57-0.3,2.4-0.68L215.94,294.73z M216.01,292.76c0,0.66-0.42,1.07-0.96,1.07
				c-0.54,0-0.95-0.41-0.95-1.07c0-0.64,0.41-1.06,0.95-1.06C215.63,291.7,216.01,292.15,216.01,292.76z"/>
			<path d="M224.15,300.56c-0.57,0.89-1.37,1.6-2.69,1.6c-3.01,0-3.34-2.69-3.34-3.81c0-2.21,1.3-3.71,3.45-3.71
				c1.49,0,2.4,0.81,2.4,1.53c0,0.38-0.2,0.65-0.54,0.65c-0.45,0-0.65-0.43-0.83-0.83c-0.18-0.47-0.48-0.78-1-0.78
				c-0.89,0-1.77,0.92-1.77,3.11c0,2.77,1.29,3.15,1.94,3.15c1.02,0,1.57-0.74,1.87-1.2L224.15,300.56z"/>
			<path d="M231.73,300.42c-0.64,1.17-1.63,1.74-2.89,1.74c-1.74,0-3.45-0.86-3.45-3.92c0-1.82,1-3.59,3.28-3.59
				c2.6,0,3.07,2.36,3.07,3.68h-4.64c0,0.93,0.13,1.71,0.51,2.32c0.35,0.55,0.91,0.86,1.51,0.86c0.99,0,1.71-0.59,2.08-1.34
				L231.73,300.42z M230.09,297.75c0-0.81-0.13-2.53-1.43-2.53c-0.67,0-1.5,0.54-1.56,2.53H230.09z"/>
		</g>
		<g>
			<path d="M15.21,233.03l-0.18,0.3c3.06,2.33,3.83,4.07,4.13,4.61c0.23,0.42,0.68,0.83,1.2,0.83c0.72,0,1.37-0.63,1.37-1.5
				C21.73,235.77,20.02,233.76,15.21,233.03z"/>
			<path d="M13.82,243.51l-0.18,0.3c2.9,2.08,3.28,3.67,3.58,4.21c0.23,0.42,0.68,0.83,1.2,0.83c0.72,0,1.37-0.63,1.37-1.5
				C19.79,245.85,18.5,244.13,13.82,243.51z"/>
			<path d="M16.11,259.91c-0.17,0.23-0.44,0.15-1.34,0.15c-0.26,0-1.02,0-1.02,0v0.75c2.11,0.22,2.91,0.71,2.91,4.71
				c0,0.16-0.3,3.48-0.3,4.23c0,0.94,0.29,2.03,1.48,2.03c1.36,0,1.84-1.66,1.84-3.3c0-1.78-1.01-5.48-1-7.36
				c0.01-3.11,5.84-20.05,5.84-20.05l-0.7,0C23.81,241.07,18.5,256.73,16.11,259.91z"/>
		</g>
		<g>
			<path d="M149.46,236.44h12.52c-0.95,1.46-3.99,5.36-3.99,5.36c-1.33-0.94-3.28-1.7-5.66-2.18l-0.18,0.33
				c2.26,1.38,4.74,3.94,5.78,5.98c0.21,0.42,0.69,0.78,1.18,0.78c0.71,0,1.21-0.6,1.21-1.47c0-0.96-0.67-2.08-1.69-2.95l7.44-6.12
				l-2.32-2.25l-1.24,1.68h-13.06V236.44z"/>
			<path d="M166.7,248.36l-2.14-1.5l-0.55,1.2h-15.09v0.83h6.82l-0.03,0.12c-1.49,5.99-4.05,11.46-7.22,15.39l0.48,0.51
				c2.97-2.78,5.59-6.46,7.46-10.28v13.73c0,0.58-0.2,0.76-0.85,0.76h-4.59v0.41c2.91,0.21,3.97,0.66,4,2.73
				c3.28-0.33,3.91-1.63,3.91-3.9V248.9h4.85l-2.63,6.8l0.46,0.29L166.7,248.36z"/>
			<path d="M188.51,252.14c0,0-6.55-1.29-10.58-4.09c4.32-4.16,5.68-8.41,5.85-9h2.48l0.61-0.87l-2.71-1.94l-1.53,1.99h-10.42
				c1.54-2.57,2.26-4.63,2.26-4.63l-2.78-0.99c-0.63,2.02-1.46,4.62-2.72,6.96c-1.34,2.49-2.45,4.2-3.74,5.57l0.42,0.36
				c1.86-1.28,3.4-2.87,4.65-4.47c0.15,0.3,2.31,4.7,4.82,7.11c-4.8,4.5-11.59,6.67-11.59,6.67l0.2,0.59c0,0,7.45-1.76,12.78-6.07
				c2.77,2.24,6.77,4.82,10.46,5.48L188.51,252.14z M170.81,240.35c0.32-0.44,0.62-0.87,0.89-1.3h9.17c0,0-1.37,4.21-4.5,7.79
				C173.17,244.17,170.97,240.94,170.81,240.35z"/>
			<path d="M183.19,255.62l-1.32,1.57h-7.13c0.32-1.9,0.4-3.65,0.44-5.01h-2.66c0,1.69-0.12,3.37-0.4,5.01h-7.08v0.83l6.93,0
				c-1.04,5.22-3.74,9.95-9.37,13.09l0.26,0.58c7.98-3.02,10.73-8.76,11.73-13.67h7.68c-0.51,6.29-1.03,9.68-1.95,10.44
				c-0.36,0.31-0.76,0.31-1.49,0.31c-0.93,0-5.28,0-5.28,0v0.58c3.82,0.45,4.23,0.87,4.25,2.27c0.12,0,2.69-0.04,3.99-1.03
				c1.44-1.11,2.42-4.99,2.91-11.98l0.96-1.08L183.19,255.62z"/>
		</g>
		<circle cx="123.18" cy="196.67" r="3.16"/>
	</g>
	<g>
		<polygon class="st0" points="181.88,31.96 181.88,16.31 150.92,29.4 150.92,36.8 		"/>
		<polygon class="st1" points="211.84,45.14 211.84,27.27 181.88,31.96 181.88,43.79 		"/>
		<polygon class="st2" points="150.92,42.39 181.88,43.79 181.88,31.96 150.92,36.8 		"/>
		<polygon class="st3" points="150.92,12.28 123.17,41.13 150.92,29.4 		"/>
		<polygon class="st4" points="150.92,29.4 123.17,41.13 150.92,36.8 		"/>
		<polygon class="st5" points="123.17,41.13 150.92,42.39 150.92,36.8 123.17,41.13 123.17,41.13 		"/>
		<polygon class="st6" points="95.42,29.4 64.46,16.31 64.46,31.96 95.42,36.8 		"/>
		<polygon class="st7" points="64.46,31.96 34.51,27.27 34.5,45.14 64.46,43.79 		"/>
		<polygon class="st8" points="95.42,42.39 95.42,36.8 64.46,31.96 64.46,43.79 		"/>
		<polygon class="st9" points="95.42,12.28 95.42,29.4 123.17,41.13 		"/>
		<polygon class="st10" points="123.17,41.13 95.42,29.4 95.42,36.8 		"/>
		
			<linearGradient id="SVGID_1_" gradientUnits="userSpaceOnUse" x1="-2076.5764" y1="39.5921" x2="-2048.8298" y2="39.5921" gradientTransform="matrix(1 0 0 1 2172 0)">
			<stop  offset="0" style="stop-color:#7ACCF3"/>
			<stop  offset="1" style="stop-color:#6BC8F2"/>
		</linearGradient>
		<polygon class="st11" points="95.42,42.39 123.17,41.13 123.17,41.13 95.42,36.8 		"/>
		
			<linearGradient id="SVGID_2_" gradientUnits="userSpaceOnUse" x1="-1993.5066" y1="50.7194" x2="-1993.5066" y2="134.6286" gradientTransform="matrix(1 0 0 1 2172 0)">
			<stop  offset="0" style="stop-color:#EDF4F8"/>
			<stop  offset="1" style="stop-color:#E8F1F6"/>
		</linearGradient>
		<polyline class="st12" points="123.17,135.92 233.82,139.28 233.82,46.13 211.84,45.14 211.84,126.12 123.17,135.92 		"/>
		
			<linearGradient id="SVGID_3_" gradientUnits="userSpaceOnUse" x1="-2159.4756" y1="92.2076" x2="-2048.8298" y2="92.2076" gradientTransform="matrix(1 0 0 1 2172 0)">
			<stop  offset="0" style="stop-color:#34B6E6"/>
			<stop  offset="0.2668" style="stop-color:#00B0E4"/>
			<stop  offset="0.6894" style="stop-color:#00AAE2"/>
			<stop  offset="1" style="stop-color:#00A7E1"/>
		</linearGradient>
		<polygon class="st13" points="123.17,135.92 34.51,126.12 34.5,45.14 12.52,46.13 12.52,139.28 		"/>
		
			<linearGradient id="SVGID_4_" gradientUnits="userSpaceOnUse" x1="-2048.8298" y1="89.8507" x2="-1960.1617" y2="89.8507" gradientTransform="matrix(1 0 0 1 2172 0)">
			<stop  offset="0" style="stop-color:#CDE6F4"/>
			<stop  offset="0.559" style="stop-color:#CCE7F6"/>
			<stop  offset="1" style="stop-color:#C7E8FA"/>
		</linearGradient>
		<polygon class="st14" points="181.88,120.06 123.17,135.92 211.84,126.12 211.84,45.14 181.88,43.79 		"/>
		
			<linearGradient id="SVGID_5_" gradientUnits="userSpaceOnUse" x1="-2048.8298" y1="89.1514" x2="-1990.116" y2="89.1514" gradientTransform="matrix(1 0 0 1 2172 0)">
			<stop  offset="3.618618e-04" style="stop-color:#B7DFF5"/>
			<stop  offset="0.5591" style="stop-color:#B4DFF6"/>
			<stop  offset="1" style="stop-color:#ADDEF8"/>
		</linearGradient>
		<polygon class="st15" points="181.88,43.79 150.92,42.39 150.92,119.78 123.17,135.92 181.88,120.06 		"/>
		
			<linearGradient id="SVGID_6_" gradientUnits="userSpaceOnUse" x1="-2048.8298" y1="88.5247" x2="-2021.082" y2="88.5247" gradientTransform="matrix(1 0 0 1 2172 0)">
			<stop  offset="0" style="stop-color:#A4D7F2"/>
			<stop  offset="0.2008" style="stop-color:#9AD5F4"/>
			<stop  offset="0.3976" style="stop-color:#94D5F5"/>
			<stop  offset="1" style="stop-color:#92D4F5"/>
		</linearGradient>
		<polygon class="st16" points="150.92,42.39 123.17,41.13 123.17,41.13 123.17,135.92 150.92,119.78 		"/>
		
			<linearGradient id="SVGID_7_" gradientUnits="userSpaceOnUse" x1="-2137.4954" y1="89.8507" x2="-2048.8298" y2="89.8507" gradientTransform="matrix(1 0 0 1 2172 0)">
			<stop  offset="0" style="stop-color:#54C3F1"/>
			<stop  offset="0.3527" style="stop-color:#00B9EE"/>
			<stop  offset="1" style="stop-color:#00B9EF"/>
		</linearGradient>
		<polygon class="st17" points="123.17,135.92 64.46,120.06 64.46,43.79 34.5,45.14 34.51,126.12 		"/>
		
			<linearGradient id="SVGID_8_" gradientUnits="userSpaceOnUse" x1="-2107.5425" y1="89.1514" x2="-2048.8298" y2="89.1514" gradientTransform="matrix(1 0 0 1 2172 0)">
			<stop  offset="0" style="stop-color:#5EC5F1"/>
			<stop  offset="0.3875" style="stop-color:#54C3F1"/>
			<stop  offset="0.9992" style="stop-color:#37BEF0"/>
		</linearGradient>
		<polygon class="st18" points="95.42,42.39 64.46,43.79 64.46,120.06 123.17,135.92 95.42,119.78 		"/>
		
			<linearGradient id="SVGID_9_" gradientUnits="userSpaceOnUse" x1="-2076.5764" y1="88.5247" x2="-2048.8298" y2="88.5247" gradientTransform="matrix(1 0 0 1 2172 0)">
			<stop  offset="0" style="stop-color:#88D1F4"/>
			<stop  offset="9.008943e-03" style="stop-color:#87D1F4"/>
			<stop  offset="0.1172" style="stop-color:#81CFF4"/>
			<stop  offset="0.1389" style="stop-color:#80CEF4"/>
			<stop  offset="0.6071" style="stop-color:#6AC8F2"/>
			<stop  offset="0.9996" style="stop-color:#62C6F2"/>
		</linearGradient>
		<polygon class="st19" points="95.42,42.39 95.42,119.78 123.17,135.92 123.17,41.13 		"/>
	</g>
</g>
</svg>
